# xmcd
#
# Track frame offsets:
#	150
#	24805
#	45626
#	62476
#	74353
#	85660
#	104892
#	117244
#	131479
#	144349
#	155386
#	172021
#	184225
#	197698
#
# Disc length: 2814 seconds
#
# Revision: 3
# Processed by: cddbd v1.5.2PL0 Copyright (c) Steve Scherf et al.
# Submitted via: audiograbber 1.83.01
#
DISCID=be0afc0e
DTITLE=Violins&Piano - Cafe de Beyoglu
DYEAR=2012
DGENRE=
TTITLE0=Kursun Adres Sormaz ki
TTITLE1=Hatiralar
TTITLE2=Elbet Bir Gün Bulusacagiz
TTITLE3=Sarhosum Sarhos
TTITLE4=Bana Ellerini Ver (Pervane)
TTITLE5=Sen Gelmez Oldun
TTITLE6=Gözelim Sensen
TTITLE7=Duydum ki Unutmussun
TTITLE8=Hasret
TTITLE9=Mazi Kalbimde Bir Yaradir
TTITLE10=Sana da Galmaz
TTITLE11=Öyle Sarhos Olsam ki
TTITLE12=Seninle Bir Dakika
TTITLE13=Ikinci Bahar
EXTD=
EXTT0=
EXTT1=
EXTT2=
EXTT3=
EXTT4=
EXTT5=
EXTT6=
EXTT7=
EXTT8=
EXTT9=
EXTT10=
EXTT11=
EXTT12=
EXTT13=
PLAYORDER=
